<?xml version="1.0" encoding="UTF-8"?>
<svg id="Layer_2" data-name="Layer 2" xmlns="http://www.w3.org/2000/svg" viewBox="0 0 158.18 246.77">
  <defs>
    <style>
      .cls-1 {
        fill: #faed1b;
      }

      .cls-2 {
        fill: #231f20;
        font-family: RethinkSans-ExtraBold, 'Rethink Sans';
        font-size: 21px;
        font-variation-settings: 'wght' 800;
        font-weight: 700;
      }

      .cls-3 {
        fill: #787878;
      }

      .cls-4 {
        fill: #f79520;
      }

      .cls-5 {
        fill: #028d45;
      }

      .cls-6 {
        fill: #ef4137;
      }

      .cls-7 {
        fill: #6c2876;
      }

      .cls-8 {
        fill: #f18e23;
      }

      .cls-9 {
        fill: #cc6d28;
      }

      .cls-10 {
        fill: #0a66b1;
      }

      .cls-11 {
        fill: #e41e26;
      }
    </style>
  </defs>
  <g id="Layer_1-2" data-name="Layer 1">
    <g>
      <polygon points="79.09 63.5 90.9 97.5 67.28 97.5 79.09 63.5"/>
      <path class="cls-7" d="M106.75,107.7v133.64c0,2.86-2.32,5.18-5.18,5.18h-4.15V102.52h4.15c2.86,0,5.18,2.32,5.18,5.18Z"/>
      <polygon class="cls-10" points="97.42 102.52 97.42 246.52 88.08 246.52 88.08 102.52 95.49 102.52 97.42 102.52"/>
      <polygon class="cls-3" points="95.49 97.5 95.49 102.52 88.08 102.52 78.75 102.52 69.42 102.52 62.69 102.52 62.69 97.5 67.28 97.5 90.9 97.5 95.49 97.5"/>
      <polygon points="83.54 63.5 90.9 97.5 79.09 63.5 83.54 63.5"/>
      <rect class="cls-5" x="78.75" y="102.52" width="9.33" height="144"/>
      <polygon points="79.09 63.5 67.28 97.5 74.64 63.5 79.09 63.5"/>
      <rect class="cls-1" x="69.42" y="102.52" width="9.33" height="144"/>
      <polygon class="cls-8" points="69.42 102.52 69.42 246.52 60.08 246.52 60.08 102.52 62.69 102.52 69.42 102.52"/>
      <path class="cls-11" d="M60.08,102.52v144h-4.15c-2.86,0-5.18-2.32-5.18-5.18V107.7c0-2.86,2.32-5.18,5.18-5.18h4.15Z"/>
    </g>
    <g>
      <path class="cls-9" d="M152.78,19.16c5.24,5.14,6.84,12.12,4.02,17.79-2,4.05-5.7,6.75-9.89,8.11-.64.2-1.29.38-1.95.51.19-.3.36-.62.5-.95.79-1.8.87-3.77.29-5.62,2.84-1.61,5.22-3.96,6.59-7.02,2.2-4.86,1.25-10.53-2.43-15.19.91.63,1.75,1.31,2.52,2.03.12.11.24.23.36.34Z"/>
      <path class="cls-6" d="M145.45,44.63c-.14.33-.31.65-.5.95-3.7.79-7.67.59-11.53-.8-1.07-.39-2.14-.76-3.22-1.12.35-.67.89-1.47,1.69-2.42,3.71.68,7.41.35,10.76-.82,1.08-.38,2.11-.85,3.09-1.41.58,1.85.51,3.82-.29,5.62Z"/>
      <path class="cls-4" d="M152.33,31.99c-1.37,3.06-3.74,5.41-6.59,7.02-.84-2.72-3.1-5.17-6.27-6.35-38.95-14.44-81.82-14.44-120.76,0-2.67.99-4.7,2.88-5.77,5.07-.44.89-.72,1.83-.83,2.78-3.5-1.56-6.49-4.12-8.13-7.67-1.9-4.08-1.57-8.76.78-12.97.02-.04.05-.09.07-.12,2.27-2.42,5.3-4.45,8.84-5.72C55.94-1.21,102.24-1.21,144.5,14.02c1.98.71,3.79,1.66,5.4,2.77,3.67,4.67,4.63,10.34,2.43,15.19Z"/>
      <path class="cls-4" d="M139.47,32.66c3.17,1.17,5.44,3.63,6.27,6.35-.98.56-2.01,1.03-3.09,1.41-3.35,1.17-7.05,1.49-10.76.82.81-.96,1.9-2.07,3.38-3.32.49-.44-3.38.34-5.2,2.92-.35-.09-.69-.19-1.03-.3-3.67-1.18-7.38-2.23-11.11-3.15.74-1.07,1.76-2.35,3.2-3.81.47-.49-3.33.66-4.92,3.4-4.53-1.06-9.1-1.92-13.68-2.59.63-1.14,1.52-2.51,2.81-4.1.4-.53-3.25.97-4.55,3.86-4.13-.56-8.29-.95-12.44-1.19.53-1.19,1.3-2.63,2.43-4.33.36-.56-3.14,1.25-4.19,4.24-4.62-.21-9.25-.23-13.88-.05.41-1.24,1.04-2.74,2-4.55.31-.6-3,1.55-3.76,4.63-4.16.21-8.31.58-12.45,1.1.3-1.27.8-2.82,1.6-4.71.26-.62-2.86,1.8-3.35,4.94-4.21.58-8.41,1.33-12.58,2.25.19-1.29.55-2.88,1.18-4.83.2-.64-2.69,2.06-2.91,5.22-4.08.94-8.13,2.04-12.15,3.31.08-1.3.3-2.92.76-4.92.14-.65-2.53,2.29-2.46,5.46-.4.13-.8.26-1.2.39-5.26,1.75-10.69,1.42-15.29-.59.11-.95.39-1.89.83-2.78,1.07-2.19,3.1-4.08,5.77-5.07,38.95-14.44,81.82-14.44,120.76,0Z"/>
      <path class="cls-6" d="M44.79,41.73c-.19-.19-.69-.85-.78-2.57,4.29-.96,8.6-1.74,12.94-2.35.3.84.83,1.67,1.7,2.47-.17-.21-.6-.91-.55-2.63,4.26-.56,8.53-.95,12.82-1.17.22.86.68,1.74,1.47,2.61-.15-.22-.52-.96-.31-2.67,4.74-.21,9.49-.2,14.23,0,.13.88.51,1.8,1.22,2.75-.12-.23-.43-.99-.06-2.7,4.28.22,8.56.62,12.81,1.19.05.88.35,1.84.97,2.85-.1-.24-.34-1.03.18-2.69,4.7.66,9.39,1.53,14.03,2.62-.02.89.18,1.86.7,2.92-.09-.26-.24-1.07.43-2.65,4.2,1.01,8.37,2.19,12.49,3.55-.11.88.01,1.88.45,2.98-.07-.26-.16-1.08.67-2.61,1.08.36,2.15.74,3.22,1.12,3.86,1.39,7.83,1.59,11.53.8-1.06,1.74-2.69,3-4.55,3.69-2.2.82-4.7.88-7.09,0-34.98-12.97-73.48-12.97-108.45,0-4.39,1.62-9.32.07-11.64-3.69,3.71.78,7.68.58,11.53-.8,1.5-.54,3-1.06,4.51-1.55.43.77,1.12,1.51,2.12,2.14-.2-.17-.76-.78-1.01-2.5,4.13-1.32,8.3-2.46,12.5-3.44.37.81.98,1.59,1.92,2.31Z"/>
      <path class="cls-9" d="M148.25,14.94c1.41,1.28,2.8,2.57,4.17,3.88-.77-.72-1.61-1.4-2.52-2.03-.5-.64-1.04-1.26-1.65-1.85Z"/>
      <path class="cls-4" d="M148.25,14.94c.6.6,1.15,1.22,1.65,1.85-1.61-1.11-3.42-2.06-5.4-2.77C102.24-1.21,55.94-1.21,13.67,14.02c-3.54,1.28-6.56,3.31-8.84,5.72.42-.75.9-1.48,1.44-2.18.04-.05.08-.1.12-.16,2.47-3.15,6.17-5.81,10.63-7.3,39.57-13.24,82.35-13.47,122.03-.69,3.66,1.18,6.82,3.14,9.2,5.52Z"/>
      <path class="cls-4" d="M130.06,40.83c1.83-2.58,5.7-3.36,5.2-2.92-1.48,1.25-2.57,2.36-3.38,3.32-.61-.1-1.22-.23-1.82-.4Z"/>
      <path d="M131.89,41.23c-.79.94-1.33,1.74-1.69,2.42-.37-.12-.74-.25-1.11-.37.1-.95.46-1.76.98-2.45.61.17,1.22.3,1.82.4Z"/>
      <path d="M129.09,43.28c.37.12.74.25,1.11.37-.83,1.54-.74,2.36-.67,2.61-.44-1.11-.56-2.1-.45-2.98Z"/>
      <path class="cls-6" d="M129.03,40.52c.34.11.68.21,1.03.3-.51.68-.88,1.5-.98,2.45-4.13-1.35-8.29-2.54-12.49-3.55.28-.65.69-1.43,1.32-2.35,3.73.92,7.44,1.97,11.11,3.15Z"/>
      <path class="cls-4" d="M116.2,36.96c1.59-2.74,5.38-3.89,4.92-3.4-1.44,1.47-2.46,2.74-3.2,3.81-.57-.14-1.15-.28-1.72-.41Z"/>
      <path d="M116.2,36.96c.57.13,1.15.27,1.72.41-.63.93-1.04,1.7-1.32,2.35-.38-.09-.76-.18-1.14-.27.02-.93.3-1.77.74-2.5Z"/>
      <path d="M115.46,39.46c.38.09.76.18,1.14.27-.67,1.59-.52,2.39-.43,2.65-.53-1.06-.72-2.03-.7-2.92Z"/>
      <path class="cls-6" d="M102.52,34.37c4.59.67,9.15,1.53,13.68,2.59-.44.73-.72,1.57-.74,2.5-4.64-1.08-9.33-1.95-14.03-2.62.21-.68.55-1.49,1.09-2.47Z"/>
      <path class="cls-4" d="M100.77,34.13c1.3-2.89,4.96-4.39,4.55-3.86-1.28,1.6-2.17,2.96-2.81,4.1-.58-.08-1.16-.17-1.75-.24Z"/>
      <path d="M100.77,34.13c.58.08,1.16.16,1.75.24-.53.98-.87,1.79-1.09,2.47-.38-.05-.77-.11-1.15-.16-.08-.94.12-1.79.49-2.56Z"/>
      <path d="M100.28,36.69c.38.05.77.1,1.15.16-.52,1.66-.28,2.45-.18,2.69-.62-1.01-.92-1.96-.97-2.85Z"/>
      <path class="cls-6" d="M88.33,32.94c4.16.24,8.31.63,12.44,1.19-.37.77-.57,1.62-.49,2.56-4.26-.57-8.53-.96-12.81-1.19.15-.69.42-1.53.86-2.56Z"/>
      <path class="cls-4" d="M86.57,32.85c1.04-3,4.54-4.81,4.19-4.24-1.14,1.71-1.9,3.14-2.43,4.33-.59-.03-1.17-.06-1.76-.09Z"/>
      <path d="M86.57,32.85c.59.03,1.17.06,1.76.09-.44,1.03-.71,1.86-.86,2.56-.39-.02-.77-.04-1.16-.06-.16-.93-.04-1.79.27-2.59Z"/>
      <path d="M86.31,35.44c.39.02.77.04,1.16.06-.37,1.7-.07,2.47.06,2.7-.71-.95-1.09-1.88-1.22-2.75Z"/>
      <path class="cls-6" d="M72.69,32.81c4.62-.18,9.26-.17,13.88.05-.31.8-.43,1.66-.27,2.59-4.74-.21-9.49-.22-14.23,0,.09-.7.27-1.56.61-2.63Z"/>
      <path class="cls-4" d="M70.94,32.88c.76-3.07,4.07-5.22,3.76-4.63-.97,1.81-1.59,3.31-2,4.55-.59.02-1.17.05-1.76.08Z"/>
      <path d="M70.94,32.88c.59-.03,1.17-.06,1.76-.08-.34,1.06-.53,1.92-.61,2.63-.39.02-.77.04-1.16.05-.24-.9-.2-1.78.02-2.6Z"/>
      <path d="M70.92,35.49c.39-.02.77-.04,1.16-.05-.21,1.71.16,2.45.31,2.67-.8-.88-1.25-1.75-1.47-2.61Z"/>
      <path class="cls-6" d="M58.49,33.99c4.14-.53,8.29-.89,12.45-1.1-.22.82-.25,1.71-.02,2.6-4.28.22-8.56.61-12.82,1.17.02-.71.13-1.58.38-2.67Z"/>
      <path class="cls-4" d="M56.74,34.22c.49-3.14,3.61-5.56,3.35-4.94-.81,1.88-1.3,3.44-1.6,4.71-.58.07-1.16.15-1.75.23Z"/>
      <path d="M56.74,34.22c.58-.08,1.16-.16,1.75-.23-.25,1.09-.36,1.96-.38,2.67-.38.05-.77.1-1.15.16-.32-.88-.35-1.76-.21-2.6Z"/>
      <path d="M56.95,36.81c.38-.05.77-.11,1.15-.16-.06,1.72.37,2.42.55,2.63-.87-.8-1.4-1.64-1.7-2.47Z"/>
      <path class="cls-6" d="M44.16,36.47c4.17-.92,8.37-1.66,12.58-2.25-.14.84-.11,1.71.21,2.6-4.34.6-8.65,1.39-12.94,2.35-.04-.71,0-1.59.15-2.7Z"/>
      <path class="cls-4" d="M42.44,36.86c.22-3.16,3.11-5.86,2.91-5.22-.64,1.95-.99,3.54-1.18,4.83-.58.13-1.15.26-1.73.39Z"/>
      <path d="M42.44,36.86c.57-.13,1.15-.26,1.73-.39-.15,1.11-.19,1.99-.15,2.7-.38.09-.76.17-1.14.26-.39-.84-.51-1.72-.44-2.57Z"/>
      <path d="M42.88,39.42c.38-.09.76-.17,1.14-.26.09,1.72.59,2.38.78,2.57-.94-.72-1.55-1.51-1.92-2.31Z"/>
      <path class="cls-6" d="M30.29,40.16c4.02-1.26,8.07-2.36,12.15-3.31-.07.85.05,1.72.44,2.57-4.2.97-8.37,2.12-12.5,3.44-.1-.7-.14-1.58-.09-2.7Z"/>
      <path class="cls-4" d="M28.59,40.7c-.07-3.18,2.6-6.12,2.46-5.46-.47,2-.69,3.62-.76,4.92-.57.18-1.13.36-1.69.54Z"/>
      <path d="M28.59,40.7c.56-.18,1.13-.36,1.69-.54-.06,1.12-.01,2,.09,2.7-.37.12-.75.24-1.12.36-.48-.81-.67-1.66-.66-2.52Z"/>
      <path d="M29.26,43.22c.37-.12.74-.24,1.12-.36.25,1.73.81,2.33,1.01,2.5-1.01-.64-1.69-1.37-2.12-2.14Z"/>
      <path class="cls-6" d="M27.4,41.1c.4-.13.8-.26,1.2-.39,0,.85.18,1.71.66,2.52-1.51.49-3.01,1.01-4.51,1.55-3.85,1.39-7.82,1.59-11.53.8-.19-.3-.36-.62-.5-.95-.58-1.33-.78-2.74-.61-4.12,4.6,2.01,10.03,2.35,15.29.59Z"/>
      <path class="cls-9" d="M3.38,21.46c.94-1.3,1.91-2.6,2.9-3.89-.55.7-1.03,1.43-1.44,2.18-.53.55-1.01,1.13-1.45,1.71Z"/>
      <path class="cls-9" d="M4.83,19.75s-.05.08-.07.12c-2.35,4.21-2.68,8.89-.78,12.97,1.64,3.55,4.63,6.11,8.13,7.67-.17,1.38.02,2.79.61,4.12.14.33.31.65.5.95-4.99-1.07-9.54-3.96-11.84-8.62-1.99-4.04-1.8-8.72.4-12.96.4-.77.87-1.53,1.41-2.27.06-.09.13-.18.19-.27.44-.58.92-1.16,1.45-1.71Z"/>
      <path class="cls-9" d="M3.38,21.46c-.06.09-.13.18-.19.27.06-.09.12-.17.19-.27Z"/>
    </g>
    <text class="cls-2" transform="translate(22.28 32.06) rotate(-15.87)"><tspan x="0" y="0">T</tspan></text>
    <text class="cls-2" transform="translate(38.42 27.62) rotate(-10.48)"><tspan x="0" y="0">O</tspan></text>
    <text class="cls-2" transform="translate(59 24.11) rotate(-5.2)"><tspan x="0" y="0">T</tspan></text>
    <text class="cls-2" transform="translate(76.04 22.72) rotate(.57)"><tspan x="0" y="0">D</tspan></text>
    <text class="cls-2" transform="translate(95.3 23.13) rotate(8.13)"><tspan x="0" y="0">O</tspan></text>
    <text class="cls-2" transform="translate(116.23 26.49) rotate(17.46)"><tspan x="0" y="0">G</tspan></text>
  </g>
</svg>