<?xml version="1.0" encoding="UTF-8"?>
<svg id="Layer_2" data-name="Layer 2" xmlns="http://www.w3.org/2000/svg" viewBox="0 0 56.5 183.52">
  <defs>
    <style>
      .cls-1 {
        fill: #faed1b;
      }

      .cls-2 {
        fill: #787878;
      }

      .cls-3 {
        fill: #028d45;
      }

      .cls-4 {
        fill: #6c2876;
      }

      .cls-5 {
        fill: #f18e23;
      }

      .cls-6 {
        fill: #0a66b1;
      }

      .cls-7 {
        fill: #e41e26;
      }
    </style>
  </defs>
  <g id="Layer_1-2" data-name="Layer 1">
    <g>
      <polygon points="28.59 .25 40.4 34.25 16.78 34.25 28.59 .25"/>
      <path class="cls-4" d="M56.25,44.45v133.64c0,2.86-2.32,5.18-5.18,5.18h-4.15V39.27h4.15c2.86,0,5.18,2.32,5.18,5.18Z"/>
      <polygon class="cls-6" points="46.92 39.27 46.92 183.27 37.58 183.27 37.58 39.27 44.99 39.27 46.92 39.27"/>
      <polygon class="cls-2" points="44.99 34.25 44.99 39.27 37.58 39.27 28.25 39.27 18.92 39.27 12.19 39.27 12.19 34.25 16.78 34.25 40.4 34.25 44.99 34.25"/>
      <polygon points="33.04 .25 40.4 34.25 28.59 .25 33.04 .25"/>
      <rect class="cls-3" x="28.25" y="39.27" width="9.33" height="144"/>
      <polygon points="28.59 .25 16.78 34.25 24.14 .25 28.59 .25"/>
      <rect class="cls-1" x="18.92" y="39.27" width="9.33" height="144"/>
      <polygon class="cls-5" points="18.92 39.27 18.92 183.27 9.58 183.27 9.58 39.27 12.19 39.27 18.92 39.27"/>
      <path class="cls-7" d="M9.58,39.27v144h-4.15c-2.86,0-5.18-2.32-5.18-5.18V44.45c0-2.86,2.32-5.18,5.18-5.18h4.15Z"/>
    </g>
  </g>
</svg>